<?xml version="1.0" encoding="UTF-8"?>
<svg viewBox="0 0 288 288" xmlns="http://www.w3.org/2000/svg">
<svg width="288" height="288" fill="none" viewBox="0 0 785 589" xmlns="http://www.w3.org/2000/svg">
<path class="colorfff svgShape" d="m542.82 172.12c-54.172-50.86-117.64-63.99-134.41-66.669 11.302-30.529 28.758-75.913 33.105-82.628 2.812-0.3537 5.644-0.516 8.477-0.4857 12.322 0 38.706 2.5623 76.911 19.761 55.175 24.835 69.839 52.769 72.748 59.602l-56.831 70.42z" fill="#fff"/>
<path class="colorA0C6F4 svgShape" d="m450 25.685c12.055 0 37.904 2.5287 75.49 19.46 49.842 22.474 65.943 47.594 70.223 56.085l-53.202 65.999c-26.316-23.72-57.042-42.01-90.421-53.824-12.723-4.587-25.796-8.132-39.091-10.601 12.49-33.61 26.066-68.209 30.631-76.85 1.488-0.1339 3.628-0.2679 6.403-0.2679h-0.033zm0.033-6.6987c-3.397-0.0714-6.793 0.1641-10.148 0.7034-3.913 1.3062-36.015 88.49-36.015 88.49s76.192 7.787 139.31 68.862l60.191-74.724s-10.032-33.928-75.239-63.268c-38.172-17.199-64.773-20.096-78.232-20.096l0.133 0.0335z" fill="#a0c6f4"/>
<path class="colorStrokefff svgStroke" d="m415.02 114.96s74.922 7.57 121.07 50.023" stroke="#fff" stroke-linecap="round" stroke-linejoin="round"/>
<path class="colorA0C6F4 svgShape" d="m479.69 111.29 27.956-54.427 28.725 56.755-56.681-2.328z" fill="#a0c6f4"/>
<path class="colorStrokefff svgStroke" d="m485.12 110.52 27.956-54.426 28.724 56.754-56.68-2.328zm-26.216-94.853s84.033 7.6365 136.2 69.733" stroke="#fff" stroke-linecap="round" stroke-linejoin="round"/>
<path class="colorfff svgShape" d="m501.83 256.86c-4.614-3.35-7.64-5.677-7.64-5.677 1.27-1.675 21.484-23.262 33.188-40.645 0 0-23.675 47.712-25.548 46.322z" fill="#fff"/>
<path class="colorStrokefff svgStroke" d="m215.44 99.655c2.257 3.7683 3.243 2.2603 9.747 1.6743s15.767 4.254 19.011 12.276c3.243 8.021 2.257 9.261 0.501 10.265-1.755 1.005-14.245 2.512-14.747 5.024" stroke="#fff" stroke-linecap="round" stroke-linejoin="round"/>
<path class="colorF9865F svgShape" d="m383.92 507.37-5.835-9.864-20.666 34.515 5.418 4.187 21.083-28.838zm-137.25-85.491s-10.717-17.434-6.119-25.991l34.175 3.667-28.056 22.324z" fill="#d8b5a5"/>
<path class="color000 svgShape" d="m246.67 421.88 2.04 4.722-6.303 24.651c-0.399 1.523-0.36 3.127 0.11 4.628 0.47 1.502 1.353 2.841 2.548 3.863l31.25-46.271c1.432-2.13 2.059-4.701 1.768-7.252s-1.481-4.914-3.357-6.665l-6.989-6.497-21.067 28.821z" fill="#000"/>
<path class="color2A1E33 svgShape" d="m229.95 128.96c9.781-0.234 22.187-0.854 19.696-8.373-2.492-7.519-11.704-26.074-32.855-20.498 0 0-7.44 6.213 1.856 17.4s11.303 11.471 11.303 11.471z" fill="#2a1e33"/>
<path class="color3B3B5F svgShape" d="m279.47 399.89s-16.72-49.402-2.575-71.089c11.704-17.902 49.791 11.203 55.008 15.072l27.27-49.269s-6.287-8.842-21.736-17.5-79.302-34.582-109.31 12.844c-11.085 17.518-11.252 92.727 10.032 121.55l41.315-11.606z" fill="#3b3b5f"/>
<path class="colorStrokefff svgStroke" d="m279.47 399.89s-16.72-49.402-2.575-71.089c11.704-17.903 49.791 11.203 55.008 15.072" stroke="#fff" stroke-linecap="round" stroke-linejoin="round"/>
<path class="color3B3B5F svgShape" d="m359.18 294.6c-12.406 13.079-49.173 76.783-57.449 107.18-11.052 40.728-6.889 74.506 53.904 140.67l29.377-42.872s-20.666-31.417-16.72-61.041c5.585-42.855 36.031-84.404 51.43-110.76l-60.542-33.175z" fill="#3b3b5f"/>
<path class="color8C3C6C svgShape" d="m363.84 300.13 48.872 38.434 14.613-22.24-63.485-16.194z" fill="#218bab"/>
<path class="colorFF8A66 svgShape" d="m644.6 259.74c7.624 1.641 13.431 4.55 17.422 8.725 3.996 4.187 2.19 6.364 0.736 7.637-1.455 1.272-7.09-0.185-11.989-4.539-4.898-4.354-6.169-11.823-6.169-11.823z" fill="#ff8a66"/>
<path class="colorF9865F svgShape" d="m494.19 251.18c1.27-1.675 21.484-23.262 33.188-40.645 0 0 35.363 39.69 39.208 40.98 1.421 0.468 10.032 0.351 20.867 0.251 18.191-0.201 42.384-0.385 47.735 2.311 8.527 4.253 13.643 6.397 15.766 12.376 2.124 5.978 2.977 9.88-2.123 10.232-5.969 0.435-9.798-7.252-9.798-7.252-5.622 3.025-11.476 5.595-17.505 7.687 0 0-45.328 17.618-75.624 9.094-8.243-2.328-51.714-35.034-51.714-35.034zm-274.76-158.54c-3.879 1.4905-6.253 3.2656-3.996 7.0169 2.257 3.7511 3.243 2.2611 9.747 1.6751 6.504-0.587 15.767 4.253 19.011 12.275 3.243 8.022 2.257 9.261 0.501 10.266-1.755 1.004-14.245 2.512-14.746 5.024-0.502 2.512 5.016 9.897 16.569 9.411l2.742-0.502s24.193 23.663 27.705 27.163c3.511 3.5 29.226 20.967 43.471 24.517 10.768 2.696 32.604-0.77 45.712-3.349 6.37-1.256 10.701-2.278 10.701-2.278s-9.848-17.768-11.855-45.065c0 0-23.541 3.785-39.191 7.234 0 0-36.516-20.397-54.272-29.423 0 0-15.516-19.025-22.773-21.537-7.256-2.512-24.076-4.4211-29.326-2.4283z" fill="#d8b5a5"/>
<path class="colorfff svgShape" d="m366.08 186.22c6.37-1.256 10.701-2.277 10.701-2.277s-11.921-15.072-13.911-42.336c0 0-5.384 5.811-3.712 21.268 2.107 19.527 6.922 23.345 6.922 23.345z" fill="#fff"/>
<path class="color471C36 svgShape" d="m362.37 138.54s0.335 33.376 9.263 47.292l3.194-1.289s-42.051 49.285-55.661 81.489c-2.223 5.275 87.328 62.566 100.55 61.762 0 0 43.639-66.702 58.52-86.48l16.051 12.46s31.45-31.92 33.138-43.24c0 0-30.38-37.027-55.175-47.879-24.796-10.852-47.183-29.407-73.885-28.821-23.107 0.352-35.998 4.706-35.998 4.706z" fill="#1ea6ca"/>
<path class="colorfff svgShape" d="m494.22 253.77-16.034-12.459 2.558-6.967 13.476 19.426z" fill="#fff"/>
<path class="colorF9865F svgShape" d="m518.63 121.83c-2.809 8.759-10.918 34.063-19.964 37.178-9.045 3.115-18.391-0.787-18.391-0.787l-9.631 4.923c-1.07 3.232-8.678 6.012-18.492 6.398-7.273 0.284-11.704-9.077-9.547-15.843 0.986-3.115 4.681-18.421 4.681-18.421s7.792-28.737 15.048-34.666c7.257-5.9281 13.911-11.823 33.055-4.0692 29.16 11.856 23.241 25.287 23.241 25.287z" fill="#d8b5a5"/>
<path class="color2A1E33 svgShape" d="m460.5 123.08c-1.287 5.359-6.855 16.111-10.517 14.168-3.661-1.942-4.932-6.866-2.357-16.328s4.731-30.931 12.021-34.8 10.517 0.6364 10.517 0.6364-3.227-15.675 6.22-17.835c0 0 3.21-1.4905 1.923 9.2442 1.25-2.9518 3.45-5.4004 6.249-6.9569s6.037-2.1317 9.2-1.6342c11.704 1.2895 15.867 17.835 15.867 17.835 0.339-1.3666 1.149-2.5696 2.287-3.3968 1.137-0.8272 2.53-1.2255 3.933-1.1248 5.367 0 13.526 7.9547 11.586 16.747 0 0 13.727-4.3039 21.017 6.6989 7.29 11.002 6.437 22.993-11.152 27.716-18.392 4.94-18.224-16.546-21.017-19.343-2.792-2.797-5.785-6.012-16.084-2.143-10.3 3.868-21.034-7.52-21.034-7.52s-1.672 13.749-3.427 15.072c-1.756 1.323-5.15 3.015-4.297-3.433 0.852-6.447 1.939-5.811 1.287-7.519s-3.544-7.151-9.647-2.361c-6.855 5.258-2.575 16.277-2.575 16.277z" fill="#2a1e33"/>
<path class="colorStroke2A1E33 svgStroke" d="m463.42 125.46c-4.096-3.349-6.939-9.512-3.344-15.574s9.497-6.883 11.286-4.589c1.789 2.295 2.491 6.163 0.802 10.752" stroke="#401c1c" stroke-linecap="round" stroke-linejoin="round"/>
<path class="color000 svgShape" d="m362.85 536.21 2.04 4.706-6.303 24.651c-0.399 1.522-0.36 3.127 0.11 4.628 0.47 1.502 1.353 2.841 2.548 3.863l31.216-46.272c1.433-2.129 2.06-4.7 1.768-7.251-0.291-2.551-1.481-4.914-3.356-6.665l-6.989-6.498-21.034 28.838z" fill="#000"/>
<path class="colorStroke2A1E33 svgStroke" d="m470.16 86.76s-2.408-7.7873-9.58-9.8471" stroke="#401c1c" stroke-linecap="round" stroke-linejoin="round"/>
<path class="colorStrokefff svgStroke" d="m318.09 263.67 86.576-121.13m35.696 8.474c-3.126 4.069-4.547 21.553 9.815 22.675 8.191 0.816 16.429-0.996 23.525-5.175m-225.03-73.367s9.898 13.113 11.453 17.785m359.12 158.1s6.687 5.443 19.779-1.675c4.765-2.562 1.371-8.607-4.681-7.1-6.053 1.507-13.209-0.754-13.209-0.754m25.732-1.021s6.337 7.419 6.169 11.823m-99.533-12.627s5.735-7.653 13.075-8.172m-254.93-93.045s3.344-10.45 14.078-12.359m14.998 170.92-12.807 24.467s-42.201 71.525-27.872 117.74m78.064-60.154 41.516-71.29s54.423-79.061 59.99-90.131l19.212-35.587m-174.92 69.198s73.851 53.924 95.737 56.52m-57.282-189.25s0 33.845 9.046 47.711m153.59 18.923c-2.324 13.934-33.139 43.224-33.139 43.224" stroke="#fff" stroke-linecap="round" stroke-linejoin="round"/>
<path class="colorfff svgShape" d="m295 378.87c2.42 0 4.381-1.964 4.381-4.388 0-2.423-1.961-4.387-4.381-4.387-2.419 0-4.38 1.964-4.38 4.387 0 2.424 1.961 4.388 4.38 4.388z" fill="#fff"/>
<path class="colorStrokefff svgStroke" d="m706.38 468.85-2.425-16.797 14.296 9.529-7.474 1.624-4.397 5.644zm-474.42-286.75c-27.103-23.965-71.895 35.771 91.959 225.91 94.55 109.69 168.87 119.52 178.9 81.356 18.057-68.461-47.15-85.76-22.873-58.949 35.279 38.987 135.61 47.226 210.4 10.852 73.785-35.905 28.424-91.654 23.843-94.92" stroke="#fff" stroke-linecap="round" stroke-linejoin="round"/>
<path class="colorfff svgShape" d="m691.58 445.31c2.419 0 4.38-1.964 4.38-4.387 0-2.424-1.961-4.388-4.38-4.388-2.42 0-4.381 1.964-4.381 4.388 0 2.423 1.961 4.387 4.381 4.387z" fill="#fff"/>
<path class="colorStrokefff svgStroke" d="m627.78 476.77 129.96-73.384" stroke="#fff" stroke-linecap="round" stroke-linejoin="round"/>
<path class="colorfff svgShape" d="m234.66 190.04c2.419 0 4.38-1.965 4.38-4.388s-1.961-4.388-4.38-4.388c-2.42 0-4.381 1.965-4.381 4.388s1.961 4.388 4.381 4.388z" fill="#fff"/>
<path class="colorFF6D66 svgShape" d="m346.47 104.39c5.199 0 9.413-4.221 9.413-9.4284 0-5.2071-4.214-9.4284-9.413-9.4284s-9.413 4.2213-9.413 9.4284c0 5.2074 4.214 9.4284 9.413 9.4284z" fill="#49a7d8"/>
<path class="colorA0C6F4 svgShape" d="m175.79 23.106c-0.821-0.0033-1.624 0.2374-2.308 0.6918-0.684 0.4543-1.218 1.1018-1.535 1.8604-0.316 0.7585-0.401 1.5941-0.243 2.4009 0.159 0.8067 0.552 1.5483 1.131 2.1308 0.58 0.5825 1.318 0.9797 2.123 1.1414 0.805 0.1616 1.64 0.0803 2.398-0.2335 0.759-0.3139 1.408-0.8462 1.864-1.5295 0.456-0.6834 0.7-1.487 0.7-2.3091 0-1.0986-0.435-2.1525-1.209-2.9309s-1.824-1.2179-2.921-1.2223z" fill="#a0c6f4"/>
<path class="colorFAD8B0 svgShape" d="m729.87 537.53c2.281 0 4.13-1.852 4.13-4.136 0-2.285-1.849-4.137-4.13-4.137s-4.13 1.852-4.13 4.137c0 2.284 1.849 4.136 4.13 4.136z" fill="#fad8b0"/>
<path class="color2A1E33 svgShape" d="m655.98 346.33-44.491-20.883c-0.785-0.388-1.443-0.991-1.9-1.738-0.456-0.748-0.692-1.609-0.679-2.485 0.012-0.877 0.272-1.731 0.749-2.466 0.477-0.734 1.152-1.318 1.947-1.684l82.696-36.441c0.579-0.257 1.206-0.389 1.839-0.389s1.26 0.132 1.839 0.389l56.848 24.417-98.848 41.28z" fill="#2a1e33"/>
<path class="color121212 svgShape" d="m653.29 277.67c0.1 18.421 2.742 68.662 2.742 68.662l98.848-41.348-2.224-69.917c-0.029-0.992-0.303-1.961-0.796-2.821-0.494-0.86-1.192-1.584-2.033-2.108s-1.799-0.831-2.787-0.895c-0.988-0.063-1.977 0.119-2.878 0.532l-85.087 38.852c-1.736 0.783-3.207 2.055-4.234 3.66-1.027 1.606-1.566 3.476-1.551 5.383z" fill="#565353"/>
<path class="colorStrokefff svgStroke" d="m655.98 346.33 98.848-41.347-2.224-69.918s-0.652-7.636-8.494-5.292m-40.295 66.3 6.672-15.792m0 15.792 6.671-15.792" stroke="#fff" stroke-linecap="round" stroke-linejoin="round"/>
<path class="colorFF6D66 svgShape" d="m193.6 468.4c2.28 0 4.129-1.852 4.129-4.137 0-2.284-1.849-4.136-4.129-4.136-2.281 0-4.13 1.852-4.13 4.136 0 2.285 1.849 4.137 4.13 4.137zm348.66 22.156c3.176 0 5.751-2.58 5.751-5.761 0-3.182-2.575-5.761-5.751-5.761-3.177 0-5.752 2.579-5.752 5.761 0 3.181 2.575 5.761 5.752 5.761z" fill="#49a7d8"/>
<path class="colorFFF7DC svgShape" d="m236.47 525.71c16.372 7.536 34.199 11.366 52.216 11.22 0.335 3e-3 0.665 0.076 0.969 0.215s0.576 0.341 0.797 0.592 0.386 0.547 0.485 0.866c0.1 0.32 0.13 0.658 0.09 0.99l-3.611 28.67c-0.072 0.498-0.301 0.959-0.653 1.318-0.351 0.358-0.808 0.595-1.304 0.675-7.323 1.39-36.783 5.443-58.887-13.397-0.336-0.289-0.584-0.667-0.714-1.091s-0.138-0.876-0.021-1.304l7.289-27.347c0.101-0.332 0.274-0.637 0.506-0.895 0.232-0.257 0.518-0.46 0.837-0.594 0.319-0.135 0.664-0.197 1.01-0.183 0.346 0.015 0.684 0.105 0.991 0.265z" fill="#fff7dc"/>
<path class="colorStrokefff svgStroke" d="m239.06 534.08s12.74 17.936 17.288 20.515 29.093-12.091 29.093-12.091m-17.071 9.613 13.392 13.782m-32.001-16.445-15.667 4.27" stroke="#fff" stroke-linecap="round" stroke-linejoin="round"/>
<path class="colorFFE1C0 svgShape" d="m646.5 186.4h-14.964v14.989h14.964v-14.989z" fill="#ffe1c0"/>
<path class="colorA0C6F4 svgShape" d="m633.56 388.52 4.447 7.721 4.448 7.72h-17.773l4.43-7.72 4.448-7.721z" fill="#a0c6f4"/>
<path class="colorStrokefff svgStroke" d="m274 46.752 1.171-35.034c-0.134-3.3493 1.203-4.3039 3.21-4.756 9.497-2.0933 38.455-8.5408 69.772 0.75361 4.062 1.2058 3.929 3.3493 3.862 5.2919l-1.12 33.393c-0.082 0.624-0.293 1.224-0.62 1.7613-0.328 0.5372-0.764 0.9999-1.28 1.358-0.517 0.3582-1.103 0.6039-1.72 0.7214-0.618 0.1175-1.253 0.1041-1.864-0.0392-11.383-1.3645-22.848-1.9241-34.309-1.6747-11.024-0.0471-22.032 0.8437-32.905 2.6627-3.11 0.5861-4.28-1.6914-4.197-4.4378z" stroke="#fff" stroke-linecap="round" stroke-linejoin="round"/>
<path class="colorStrokefff svgStroke" d="m284.57 41.728 18.292-21.436 20.231 20.012c-6.989-2.3613-38.523 1.4235-38.523 1.4235zm29.477-11.589 14.781-11.857 12.456 8.9092 0.468 13.916-18.676-0.9043m-30.605-21.59c0.17-1.684-1.294-3.2111-3.269-3.411-1.975-0.2-3.714 1.003-3.884 2.687s1.294 3.2112 3.269 3.4111c1.975 0.2 3.714-1.0031 3.884-2.6871zm334.99 483.16 12.256 22.675c1.287 2.026 0.836 3.182-0.285 4.22-5.25 4.873-21.25 19.711-44.658 25.505-3.026 0.754-3.745-0.67-4.414-1.926l-11.704-21.619c-0.177-0.429-0.263-0.889-0.253-1.352 9e-3 -0.463 0.115-0.92 0.31-1.34s0.475-0.795 0.822-1.102c0.347-0.306 0.753-0.537 1.194-0.678 7.739-3.365 15.227-7.282 22.405-11.723 7.07-4.034 13.783-8.667 20.063-13.849 1.672-1.675 3.344-0.586 4.264 1.189z" stroke="#fff" stroke-linecap="round" stroke-linejoin="round"/>
<path class="colorStrokefff svgStroke" d="m622.65 508.96-3.662 20.415-20.264-5.175c5.266-1.139 23.926-15.24 23.926-15.24zm-14.463 18.288-4.999 13.028-11.202-1.021-5.468-8.675 12.189-6.38m30.74 3.399c1.327-0.607 1.986-2.014 1.472-3.141-0.515-1.127-2.007-1.548-3.334-0.941s-1.986 2.013-1.472 3.141c0.515 1.127 2.007 1.548 3.334 0.941z" stroke="#fff" stroke-linecap="round" stroke-linejoin="round"/>
<path class="colorfff svgShape colorStrokefff svgStroke" d="m567.77 114.63 49.809 38.183c0.259 0.2 0.555 0.346 0.871 0.43s0.645 0.104 0.969 0.059c0.324-0.046 0.636-0.155 0.917-0.323 0.281-0.167 0.526-0.389 0.72-0.652l7.524-10.216c0.37-0.509 0.529-1.141 0.445-1.765s-0.405-1.191-0.896-1.584l-49.106-39.371c-0.261-0.2081-0.56-0.361-0.881-0.4495-0.322-0.0885-0.657-0.1107-0.987-0.0653s-0.647 0.1575-0.933 0.3295c-0.285 0.172-0.533 0.4003-0.727 0.671l-8.226 11.388c-0.37 0.516-0.524 1.157-0.43 1.785 0.093 0.628 0.427 1.195 0.931 1.581z" fill="#fff" stroke="#fff" stroke-linecap="round" stroke-linejoin="round"/>
<path class="colorFF6D66 svgShape" d="m571.45 112.92 12.071 8.491 7.14-8.524-12.089-10.099-7.122 10.132z" fill="#49a7d8"/>
<path class="colorFAD8B0 svgShape" d="m588.07 124.72 12.105 9.612 6.488-7.988-12.189-9.897-6.404 8.273z" fill="#fad8b0"/>
<path class="colorA0C6F4 svgShape" d="m604.24 138.02 12.089 8.491 5.751-7.402-11.436-9.596-6.404 8.507z" fill="#a0c6f4"/>
<path class="colorfff svgShape colorStrokefff svgStroke" d="m667.17 61.238 11.352 95.456c0.052 0.502 0.204 0.989 0.447 1.432 0.243 0.442 0.572 0.831 0.968 1.144 0.397 0.312 0.851 0.542 1.338 0.675 0.486 0.132 0.995 0.166 1.494 0.098l19.228-2.646c0.965-0.129 1.841-0.63 2.443-1.396 0.603-0.766 0.884-1.737 0.784-2.707l-9.313-96.025c-0.051-0.5073-0.204-0.9989-0.451-1.4452-0.246-0.4462-0.58-0.8377-0.982-1.1509-0.401-0.3131-0.862-0.5413-1.355-0.6708-0.492-0.1295-1.006-0.1575-1.509-0.0824l-21.251 3.1148c-0.976 0.1415-1.858 0.6613-2.455 1.4475s-0.863 1.7759-0.738 2.7559z" fill="#fff" stroke="#fff" stroke-linecap="round" stroke-linejoin="round"/>
<path class="colorFF6D66 svgShape" d="m672.97 63.465 3.595 22.34 16.954-1.256-1.856-24.065-18.693 2.9809z" fill="#49a7d8"/>
<path class="color91BA83 svgShape" d="m677.79 94.346 2.391 23.562 15.683-1.406-2.174-23.948-15.9 1.7919z" fill="#91ba83"/>
<path class="colorFAD8B0 svgShape" d="m680.48 126.33 3.594 22.34 14.262-1.574-1.722-22.826-16.134 2.06z" fill="#fad8b0"/>
<path class="colorfff svgShape colorStrokefff svgStroke" d="m642.39 81.568 31.433 92.559c0.128 0.377 0.329 0.725 0.592 1.023 0.264 0.299 0.584 0.542 0.942 0.715s0.746 0.272 1.143 0.293 0.794-0.037 1.169-0.172l19.696-7.1c0.727-0.266 1.324-0.803 1.666-1.498 0.343-0.696 0.405-1.497 0.173-2.237l-29.511-93.463c-0.124-0.3881-0.325-0.747-0.591-1.0551-0.266-0.308-0.592-0.5589-0.957-0.7373-0.366-0.1785-0.764-0.2808-1.17-0.3008-0.407-0.0201-0.813 0.0425-1.194 0.1841l-21.602 8.0216c-0.734 0.2651-1.334 0.8098-1.669 1.5154s-0.378 1.5152-0.12 2.2526z" fill="#fff" stroke="#fff" stroke-linecap="round" stroke-linejoin="round"/>
<path class="colorA0C6F4 svgShape" d="m648.76 83.26 8.159 21.117 16.319-4.7725-6.805-23.161-17.673 6.8159z" fill="#a0c6f4"/>
<path class="colorF9865F svgShape" d="m659.9 112.47 7.223 22.558 15.048-4.656-7.089-22.976-15.182 5.074z" fill="#d8b5a5"/>
<path class="colorFAD8B0 svgShape" d="m669.16 143.2 8.159 21.101 13.627-4.522-6.42-21.971-15.366 5.392z" fill="#fad8b0"/>
<path class="color7595EC svgShape" d="m405.47 198.48h-158.75c-5.061 0-9.163 4.109-9.163 9.177v21.52c0 5.068 4.102 9.177 9.163 9.177h158.75c5.06 0 9.163-4.109 9.163-9.177v-21.52c0-5.068-4.103-9.177-9.163-9.177z" fill="#e09f49"/>
<path class="colorfff svgShape" d="m345.98 210.22h-86.542c-1.671 0-3.026 1.357-3.026 3.031 0 1.675 1.355 3.032 3.026 3.032h86.542c1.671 0 3.026-1.357 3.026-3.032 0-1.674-1.355-3.031-3.026-3.031z" fill="#fff"/>
<path class="colorStrokefff svgStroke" d="m257.28 224.15h147.12" stroke="#fff" stroke-linecap="round" stroke-linejoin="round"/>
<path class="color91BA83 svgShape" d="m182.01 123.45 2.503 2.745c0.509 0.557 0.775 1.294 0.741 2.049-0.034 0.754-0.366 1.464-0.922 1.973l-4.099 3.75c-0.556 0.509-1.292 0.776-2.045 0.742s-1.462-0.367-1.971-0.924l-2.503-2.745 8.296-7.59z" fill="#91ba83"/>
<path class="colorStrokefff svgStroke" d="m159.46 118.12 11.807 12.946c0.61 0.669 1.646 0.716 2.315 0.105l8.159-7.466c0.669-0.611 0.716-1.649 0.105-2.318l-11.806-12.946c-0.61-0.669-1.647-0.716-2.315-0.105l-8.16 7.466c-0.668 0.611-0.715 1.649-0.105 2.318z" stroke="#fff" stroke-linecap="round" stroke-linejoin="round"/>
<path class="colorFF6D66 svgShape" d="m147.13 176.94h-14.83v13.564h14.83v-13.564z" fill="#49a7d8"/>
<path class="colorStrokefff svgStroke" d="m132.3 168.22v8.725h-8.862" stroke="#fff" stroke-linecap="round" stroke-linejoin="round"/>
<path class="colorFAD8B0 svgShape" d="m635.77 23.759h-14.831v13.565h14.831v-13.565z" fill="#fad8b0"/>
<path class="colorStrokefff svgStroke" d="m620.94 15.034v8.7251h-8.861m-392.55 83.85c-153.82-63.838-272.13 59.116 17.706 247.38 22.823 14.838 57.834 20.096 57.834 20.096" stroke="#fff" stroke-linecap="round" stroke-linejoin="round"/>
<path class="colorfff svgShape" d="m78.098 116.28c2.4194 0 4.3806-1.964 4.3806-4.387s-1.9612-4.388-4.3806-4.388c-2.4193 0-4.3805 1.965-4.3805 4.388s1.9612 4.387 4.3805 4.387z" fill="#fff"/>
<path class="colorStrokefff svgStroke" d="m50.21 87.798 4.7986-4.6221 11.018 6.3303 5.551 17.132-16.937-7.1005-4.4307-11.739zm4.7986-4.6221-4.7986 4.622-2.6919-3.2656 4.5979-4.4211 2.8926 3.0647zm16.569 23.462-11.018-12.108" stroke="#fff" stroke-linecap="round" stroke-linejoin="round"/>
<path class="colorfff svgShape colorStrokefff svgStroke" d="m98.195 414.07 11.938 61.694c0.064 0.321 0.191 0.626 0.372 0.897 0.182 0.271 0.416 0.504 0.688 0.684 0.272 0.181 0.577 0.306 0.897 0.368s0.65 0.06 0.969-6e-3l12.406-2.646c0.622-0.133 1.167-0.503 1.523-1.03 0.355-0.528 0.493-1.173 0.383-1.8l-10.6-62.08c-0.057-0.328-0.181-0.641-0.363-0.92-0.181-0.279-0.418-0.518-0.694-0.703-0.277-0.184-0.588-0.311-0.915-0.372-0.327-0.06-0.663-0.054-0.987 0.019l-13.694 3.048c-0.3129 0.06-0.611 0.181-0.8771 0.357s-0.495 0.402-0.6735 0.667c-0.1786 0.264-0.3034 0.561-0.3672 0.874s-0.0655 0.635-0.0048 0.949z" fill="#fff" stroke="#fff" stroke-linecap="round" stroke-linejoin="round"/>
<path class="colorFF6D66 svgShape" d="m102.12 415.25 3.41 14.385 10.969-1.624-2.341-15.591-12.038 2.83z" fill="#49a7d8"/>
<path class="colorFAD8B0 svgShape" d="m106.74 435.14 2.675 15.223 10.149-1.658-2.558-15.508-10.266 1.943z" fill="#fad8b0"/>
<path class="colorA0C6F4 svgShape" d="m110.02 455.84 3.394 14.385 9.213-1.724-2.19-14.771-10.417 2.11z" fill="#a0c6f4"/>
<path class="colorStrokefff svgStroke" d="m440.47 568.66 50.494-13.531 1.939 5.476-51.079 13.28-1.354-5.225zm-7.023-7.067 1.472 4.589m-2.893-1.592 4.264-1.473m-5.284 16.01 2.742 8.675m-5.082-3.182 7.59-2.412m-16.803-17.383 3.595 11.488m-7.156-4.337 10.633-3.4" stroke="#fff" stroke-linecap="round" stroke-linejoin="round"/>
<path class="colorStrokefff svgStroke" d="m72.179 19.103-31.952-14.452 1.3209-3.6508 32.152 14.821-1.5215 3.2824zm0.6521 6.6652 1.1871-3.0144m0.8192 2.0599-2.8423-1.055m9.5303-6.0625 2.2571-5.6603m1.2875 3.8016-4.9491-1.9761m1.3376 16.177 3.0096-7.4857m1.8726 5.2917-6.9555-2.7632" stroke="#fff" stroke-linecap="round" stroke-linejoin="round" stroke-width=".67"/>
<path d="m191.64 289.48c-22.539-16.244-44.676-41.498-34.962-67.439 0 0 15.533-10.366 40.128 2.596l24.612 13.029-29.778 51.814z" fill="url(#h)"/>
<path class="colorfff svgShape" d="m181.43 397.71c-10.149-4.806-53.42-27.381-61.128-65.948-6.688-33.293 18.793-78.224 31.534-98.086-0.82 26.343 25.598 48.65 38.338 57.827 10.841 7.984 22.803 14.316 35.496 18.79l-44.24 87.417z" fill="#fff"/>
<path d="m149.89 241.52c2.759 17.517 16.101 35.654 38.807 52.032 10.245 7.573 21.502 13.667 33.439 18.103l-41.799 82.729c-12.774-6.364-50.511-27.9-57.55-63.102-5.835-29.256 13.961-68.058 27.137-89.762h-0.034zm6.822-19.476s-47.902 64.843-38.84 110.23c9.062 45.384 64.739 68.662 64.739 68.662l46.598-92.107c-14.563-5.342-24.026-9.696-37.536-19.443-22.538-16.244-44.675-41.498-34.961-67.439v0.101z" fill="url(#g)"/>
<path class="colorStrokefff svgStroke" d="m144.09 259.72c1.405 8.435 4.733 16.432 9.727 23.368 4.993 6.937 11.518 12.625 19.065 16.623m13.911 9.312 25.999 13.95m-64.99-26.042s8.36 18.606 35.279 30.697m-56.647-27.916s0.937 19.543 13.928 26.058m15.8-93.949s-2.408 25.12 35.479 57.659m-21.551-53.004s12.071-0.938 29.711 12.091m-86.559 67.992c-0.769 12.443 0.786 57.541 65.993 86.312" stroke="#fff" stroke-linecap="round" stroke-linejoin="round"/>
<path d="m529.68 291.47-27.655 55.516s18.76 6.916 4.096 28.469c0 0 34.677 14.402 57.366-22.993 22.689-37.396-33.807-60.992-33.807-60.992z" fill="url(#f)"/>
<path class="colorfff svgShape" d="m466.38 461.15c-13.994 0-28.758-5.727-43.923-17.031l51.732-85.877 30.781 19.409 0.2 0.084c5.38 1.978 11.073 2.965 16.804 2.914 9.721 0.06 19.215-2.946 27.136-8.591l-37.82 64.893c-0.084 0.118-16.369 24.25-44.91 24.25v-0.051z" fill="#fff"/>
<path d="m475.03 361.76 28.423 17.936 0.368 0.234 0.385 0.151c5.687 2.106 11.709 3.161 17.773 3.115 6.967 0.026 13.862-1.423 20.231-4.254l-33.005 56.554c-1.07 1.574-16.386 23.144-42.803 23.144-12.891 0-26.534-5.108-40.612-15.19l49.24-81.69zm88.464-9.311c-12.824 21.134-29.46 25.723-41.515 25.723-5.404 0.045-10.772-0.88-15.851-2.73l-32.754-20.649-54.155 89.964c18.091 13.966 33.924 18.99 47.183 18.99 30.28 0 47.066-25.488 47.066-25.488l50.026-85.726v-0.084z" fill="url(#e)"/>
<path class="colorStrokefff svgStroke" d="m502.03 346.99s20.632 7.302 4.096 28.47m-33.406-22.608s28.106 25.789 43.656 25.605c15.549-0.184 33.807-3.868 44.558-22.457m-84.753 30.211s19.278 17.148 40.847 11.639m-20.599 13.984s10.115 7.586 24.26 0.401m-70.808 10.183s23.408 23.261 60.108 7.921m-47.401-30.613s9.53 6.832 15.499 9.01m56.346-101.15s21.318 6.984 23.876 35.168m-13.159-0.351s9.815 15.222-6.771 30.428m-117.26 67.741s53.503 67.12 92.377-11.371" stroke="#fff" stroke-linecap="round" stroke-linejoin="round"/>
<path class="colorStrokeFF6D66 svgStroke" d="m34.744 274.14h12.473m682.65-150.34h12.473" stroke="#d06868" stroke-linecap="round" stroke-linejoin="round"/>
<path class="colorStrokeFAD8B0 svgStroke" d="m395.22 38.06h12.49m345.98 150.57 12.272 2.21" stroke="#FAD8B0" stroke-miterlimit="10"/>
<path class="colorStrokeA0C6F4 svgStroke" d="m263.5 500.5h12.49" stroke="#a0c6f4" stroke-linecap="round" stroke-linejoin="round"/>
<path class="color91BA83 svgShape" d="m780.58 348.83c2.281 0 4.13-1.852 4.13-4.137 0-2.284-1.849-4.136-4.13-4.136s-4.13 1.852-4.13 4.136c0 2.285 1.849 4.137 4.13 4.137zm-776.45-198.65c2.2808 0 4.1298-1.852 4.1298-4.137 0-2.284-1.849-4.136-4.1298-4.136s-4.1298 1.852-4.1298 4.136c0 2.285 1.849 4.137 4.1298 4.137z" fill="#91ba83"/>
<defs>
<linearGradient id="h" x1="150.24" x2="229.35" y1="250.02" y2="250.3" gradientUnits="userSpaceOnUse">
<stop class="stopColorAA367C svgShape" stop-color="#38edff" offset="0"/>
<stop class="stopColor4A2FBD svgShape" stop-color="#dc654f" offset="1"/>
</linearGradient>
<linearGradient id="g" x1="109.88" x2="242.51" y1="301.97" y2="302.28" gradientUnits="userSpaceOnUse">
<stop class="stopColorAA367C svgShape" stop-color="#38edff" offset="0"/>
<stop class="stopColor4A2FBD svgShape" stop-color="#dc654f" offset="1"/>
</linearGradient>
<linearGradient id="f" x1="497.96" x2="576.77" y1="330.24" y2="330.47" gradientUnits="userSpaceOnUse">
<stop class="stopColorAA367C svgShape" stop-color="#38edff" offset="0"/>
<stop class="stopColor4A2FBD svgShape" stop-color="#dc654f" offset="1"/>
</linearGradient>
<linearGradient id="e" x1="410.42" x2="580.55" y1="402.21" y2="403.02" gradientUnits="userSpaceOnUse">
<stop class="stopColorAA367C svgShape" stop-color="#38edff" offset="0"/>
<stop class="stopColor4A2FBD svgShape" stop-color="#dc654f" offset="1"/>
</linearGradient>
</defs>
</svg>
</svg>
