<svg width="272.2" height="72.1" viewBox="0 0 272.2 72.1" xmlns="http://www.w3.org/2000/svg"><g id="svgGroup" stroke-linecap="round" fill-rule="evenodd" font-size="9pt" stroke="#ffffff" stroke-width="0.25mm" fill="#ffffff" style="stroke:#ffffff;stroke-width:0.25mm;fill:#ffffff"><path d="M 154.9 71.1 L 144.2 71.1 L 118.5 3.6 L 127.8 0 L 149.8 60.7 L 171.9 0.3 L 180.5 3.6 L 154.9 71.1 Z M 123 68.6 L 114.3 72.1 L 106.5 52.1 L 74.1 52.1 L 66.3 71.9 L 58.2 68.6 L 85.6 1.1 L 96 1.1 L 123 68.6 Z M 0 70.9 L 0 1.3 Q 4.7 0.8 9.2 0.55 A 151.31 151.31 0 0 1 13.386 0.379 Q 16.238 0.3 19.5 0.3 A 48.608 48.608 0 0 1 26.844 0.826 Q 30.778 1.428 34.11 2.718 A 29.198 29.198 0 0 1 35.05 3.1 A 30.978 30.978 0 0 1 42.339 7.42 A 27.223 27.223 0 0 1 45.85 10.8 Q 50.1 15.7 52.15 22.15 A 44.256 44.256 0 0 1 54.122 33.146 A 51.506 51.506 0 0 1 54.2 36 A 45.309 45.309 0 0 1 52.719 47.697 A 41.802 41.802 0 0 1 52.1 49.8 Q 50 56.3 45.65 61.25 Q 41.3 66.2 34.55 69.05 Q 28.275 71.7 19.709 71.886 A 60.192 60.192 0 0 1 18.4 71.9 A 186.98 186.98 0 0 1 14.329 71.858 Q 12.315 71.814 10.522 71.724 A 101.5 101.5 0 0 1 8.45 71.6 Q 4.2 71.3 0 70.9 Z M 218 70.9 L 218 1.3 Q 222.7 0.8 227.2 0.55 A 151.31 151.31 0 0 1 231.386 0.379 Q 234.238 0.3 237.5 0.3 A 48.608 48.608 0 0 1 244.844 0.826 Q 248.778 1.428 252.11 2.718 A 29.198 29.198 0 0 1 253.05 3.1 A 30.978 30.978 0 0 1 260.339 7.42 A 27.223 27.223 0 0 1 263.85 10.8 Q 268.1 15.7 270.15 22.15 A 44.256 44.256 0 0 1 272.122 33.146 A 51.506 51.506 0 0 1 272.2 36 A 45.309 45.309 0 0 1 270.719 47.697 A 41.802 41.802 0 0 1 270.1 49.8 Q 268 56.3 263.65 61.25 Q 259.3 66.2 252.55 69.05 Q 246.275 71.7 237.709 71.886 A 60.192 60.192 0 0 1 236.4 71.9 A 186.98 186.98 0 0 1 232.329 71.858 Q 230.315 71.814 228.522 71.724 A 101.5 101.5 0 0 1 226.45 71.6 Q 222.2 71.3 218 70.9 Z M 200 71.1 L 190.5 71.1 L 190.5 1.1 L 200 1.1 L 200 71.1 Z M 9.5 9 L 9.5 63.1 Q 11.6 63.4 13.9 63.5 A 107.265 107.265 0 0 0 17.463 63.594 A 121.297 121.297 0 0 0 18.7 63.6 A 37.906 37.906 0 0 0 24.864 63.128 Q 29.793 62.315 33.4 60.1 Q 39.1 56.6 41.8 50.35 A 32.292 32.292 0 0 0 44.054 42.276 A 42.502 42.502 0 0 0 44.5 36 Q 44.5 28.8 41.8 22.5 Q 39.1 16.2 33.5 12.35 A 20.895 20.895 0 0 0 26.448 9.29 Q 23.607 8.611 20.296 8.516 A 38.008 38.008 0 0 0 19.2 8.5 Q 16.3 8.5 13.9 8.65 Q 11.5 8.8 9.5 9 Z M 227.5 9 L 227.5 63.1 Q 229.6 63.4 231.9 63.5 A 107.265 107.265 0 0 0 235.463 63.594 A 121.297 121.297 0 0 0 236.7 63.6 A 37.906 37.906 0 0 0 242.864 63.128 Q 247.793 62.315 251.4 60.1 Q 257.1 56.6 259.8 50.35 A 32.292 32.292 0 0 0 262.054 42.276 A 42.502 42.502 0 0 0 262.5 36 Q 262.5 28.8 259.8 22.5 Q 257.1 16.2 251.5 12.35 A 20.895 20.895 0 0 0 244.448 9.29 Q 241.607 8.611 238.296 8.516 A 38.008 38.008 0 0 0 237.2 8.5 Q 234.3 8.5 231.9 8.65 Q 229.5 8.8 227.5 9 Z M 90.3 10.5 L 77.1 44.1 L 103.4 44.1 L 90.3 10.5 Z" vector-effect="non-scaling-stroke"/></g></svg>