<?xml version="1.0" encoding="UTF-8"?>
<svg viewBox="0 0 288 288" xmlns="http://www.w3.org/2000/svg">
<svg width="288" height="288" fill="none" viewBox="0 0 204 204" xmlns="http://www.w3.org/2000/svg">
<path d="m187.64 69.902c5.453-2.0435 11.587 0.7122 13.057 6.3463 5.542 21.238 4.106 43.803-4.26 64.298-9.699 23.764-28.001 42.997-51.254 53.863-23.254 10.866-49.749 12.566-74.2 4.76-24.451-7.805-45.061-24.541-57.718-46.87-12.657-22.329-16.43-48.609-10.568-73.597 5.8627-24.988 20.93-46.848 42.198-61.217 21.267-14.37 47.17-20.194 72.541-16.31 21.882 3.3498 41.98 13.708 57.356 29.372 4.078 4.1554 3.292 10.834-1.262 14.462-4.554 3.6284-11.144 2.8182-15.334-1.2258-11.983-11.568-27.318-19.219-43.951-21.765-20.126-3.0811-40.674 1.5387-57.545 12.938-16.871 11.399-28.824 28.74-33.474 48.562-4.6507 19.822-1.6572 40.67 8.3831 58.383 10.04 17.713 26.39 30.989 45.786 37.181 19.396 6.192 40.415 4.843 58.861-3.777 18.446-8.619 32.964-23.876 40.659-42.727 6.359-15.579 7.67-32.666 3.901-48.89-1.318-5.6716 1.372-11.742 6.824-13.786z" fill="url(#a)"/>
<path class="colorfff svgShape" d="m66.08 99.16c0 4.644 3.24 8.352 7.956 8.352 0.612 0 1.044-0.072 1.296-0.216l-5.436 7.704h7.632l5.544-8.82c1.404-2.268 2.304-4.86 2.304-7.2 0-5.256-4.068-9.18-9.648-9.18-5.472 0-9.648 3.96-9.648 9.36zm6.336-0.252c0-1.836 1.476-3.24 3.348-3.24s3.312 1.44 3.312 3.276-1.44 3.24-3.312 3.24-3.348-1.44-3.348-3.276zm21.981 6.012c0.54-0.864 1.584-1.548 2.916-1.548 1.836 0 3.1679 1.296 3.1679 3.06s-1.3319 3.168-3.1679 3.168c-1.908 0-2.952-1.26-3.06-2.376h-6.336c0.108 5.004 3.78 8.28 9.504 8.28 5.3639 0 9.4679-3.996 9.4679-9.396 0-4.464-3.204-8.172-7.9199-8.172-1.548 0-2.916 0.396-4.104 1.152l0.468-3.168h9.8279v-5.616h-14.796l-1.836 13.392 5.868 1.224zm26.96-8.892c0-3.42-2.772-6.084-6.336-6.084s-6.336 2.664-6.336 6.084 2.772 6.084 6.336 6.084 6.336-2.664 6.336-6.084zm-4.248 0c0 1.26-0.9 2.124-2.088 2.124s-2.088-0.864-2.088-2.124 0.9-2.124 2.088-2.124 2.088 0.864 2.088 2.124zm17.748-5.76h-5.508l-18.36 24.732h5.508l18.36-24.732zm-10.368 18.972c0 3.42 2.772 6.084 6.336 6.084s6.336-2.664 6.336-6.084-2.772-6.084-6.336-6.084-6.336 2.664-6.336 6.084zm4.248 0c0-1.26 0.9-2.124 2.088-2.124s2.088 0.864 2.088 2.124-0.9 2.124-2.088 2.124-2.088-0.864-2.088-2.124z" fill="#fff"/>
<defs>
<linearGradient id="a" x1="-12.435" x2="228.12" y1="91.215" y2="92.098" gradientUnits="userSpaceOnUse">
<stop class="stopColorAA367C svgShape" stop-color="#45b5f4" offset="0"/>
<stop class="stopColor4A2FBD svgShape" stop-color="#d88c2c" offset="1"/>
</linearGradient>
</defs>
</svg>
</svg>
