<?xml version="1.0" encoding="UTF-8"?>
<svg viewBox="0 0 288 288" xmlns="http://www.w3.org/2000/svg">
<svg width="288" height="288" fill="none" viewBox="0 0 204 204" xmlns="http://www.w3.org/2000/svg">
<path d="m187.64 69.902c5.453-2.0435 11.587 0.7122 13.057 6.3463 5.542 21.238 4.106 43.803-4.26 64.298-9.699 23.764-28.001 42.997-51.254 53.863-23.254 10.866-49.749 12.566-74.2 4.76-24.451-7.805-45.061-24.541-57.718-46.87-12.657-22.329-16.43-48.609-10.568-73.597 5.8627-24.988 20.93-46.848 42.198-61.217 21.267-14.37 47.17-20.194 72.541-16.31 21.882 3.3498 41.98 13.708 57.356 29.372 4.078 4.1554 3.292 10.834-1.262 14.462-4.554 3.6284-11.144 2.8182-15.334-1.2258-11.983-11.568-27.318-19.219-43.951-21.765-20.126-3.0811-40.674 1.5387-57.545 12.938-16.871 11.399-28.824 28.74-33.474 48.562-4.6507 19.822-1.6572 40.67 8.3831 58.383 10.04 17.713 26.39 30.989 45.786 37.181 19.396 6.192 40.415 4.843 58.861-3.777 18.446-8.619 32.964-23.876 40.659-42.727 6.359-15.579 7.67-32.666 3.901-48.89-1.318-5.6716 1.372-11.742 6.824-13.786z" fill="url(#a)"/>
<path class="colorfff svgShape" d="m75.656 89.8c-4.608 0-8.496 2.844-8.496 7.164 0 2.052 1.116 3.672 2.808 4.68-1.908 0.972-3.888 3.024-3.888 5.904 0 5.004 4.572 7.956 9.576 7.956s9.576-2.952 9.576-7.956c0-2.88-1.98-4.932-3.888-5.904 1.692-1.008 2.808-2.628 2.808-4.68 0-4.32-3.888-7.164-8.496-7.164zm3.096 17.388c0 1.692-1.26 2.916-3.096 2.916s-3.096-1.224-3.096-2.916c0-1.62 1.26-2.88 3.096-2.88s3.096 1.26 3.096 2.88zm-3.096-12.132c1.44 0 2.556 0.972 2.556 2.376s-1.08 2.376-2.556 2.376-2.556-0.972-2.556-2.376 1.116-2.376 2.556-2.376zm33.869 7.596c0-6.804-3.888-12.852-10.944-12.852-7.092 0-10.98 6.048-10.98 12.852s3.888 12.852 10.98 12.852c7.0563 0 10.944-6.048 10.944-12.852zm-6.696 0c0 3.348-1.296 6.624-4.2483 6.624-2.988 0-4.284-3.276-4.284-6.624s1.296-6.624 4.284-6.624c2.9523 0 4.2483 3.276 4.2483 6.624zm21.552-6.624c0-3.42-2.772-6.084-6.336-6.084s-6.336 2.664-6.336 6.084 2.772 6.084 6.336 6.084 6.336-2.664 6.336-6.084zm-4.248 0c0 1.26-0.9 2.124-2.088 2.124s-2.088-0.864-2.088-2.124 0.9-2.124 2.088-2.124 2.088 0.864 2.088 2.124zm17.748-5.76h-5.508l-18.36 24.732h5.508l18.36-24.732zm-10.368 18.972c0 3.42 2.772 6.084 6.336 6.084s6.336-2.664 6.336-6.084-2.772-6.084-6.336-6.084-6.336 2.664-6.336 6.084zm4.248 0c0-1.26 0.9-2.124 2.088-2.124s2.088 0.864 2.088 2.124-0.9 2.124-2.088 2.124-2.088-0.864-2.088-2.124z" fill="#fff"/>
<defs>
<linearGradient id="a" x1="-12.435" x2="228.12" y1="91.215" y2="92.098" gradientUnits="userSpaceOnUse">
<stop class="stopColorAA367C svgShape" stop-color="#45b5f4" offset="0"/>
<stop class="stopColor4A2FBD svgShape" stop-color="#f9b35a" offset="1"/>
</linearGradient>
</defs>
</svg>
</svg>
